<svg width="156" height="44" viewBox="0 0 156 44" fill="none" xmlns="http://www.w3.org/2000/svg">
          <title>Alpaca</title>
          <desc>http://alpaca.markets/</desc>
          <path fill-rule="evenodd" clip-rule="evenodd" d="M29.6456 43.1018C38.0269 39.9613 44 31.8062 44 22.2408C44 9.95756 34.1503 0 22 0C9.84974 0 0 9.95756 0 22.2408C0 32.938 7.47024 41.8713 17.4246 44L17.4191 22.2996C11.9167 22.7836 12.0851 17.3513 12.0851 17.3513C12.0851 17.3513 14.106 15.6941 15.4967 13.4301C16.8038 11.3023 20.3388 10.5929 20.3388 10.5929L19.4968 7.87575C21.2943 7.45272 22.5243 10.5929 22.5243 10.5929V6.9707C22.5243 6.9707 24.0107 7.48988 24.4338 8.15442C24.5366 8.31592 24.6285 8.48717 24.7104 8.66367C25.3274 9.99217 25.3871 11.618 25.3871 11.618C26.9293 12.6756 28.6322 14.3799 29.0429 17.8943C29.0429 19.6259 29.4511 35.5907 29.6456 43.1018Z" fill="#FFD700"></path>
          <ellipse cx="22.6925" cy="8.73497" rx="0.388563" ry="1.87047" fill="#D8D8D8"></ellipse>
          <ellipse cx="12.3204" cy="17.258" rx="0.157065" ry="0.213335" fill="#D8D8D8"></ellipse>
          <ellipse rx="1.45708" ry="0.390514" transform="matrix(0.313541 0.949575 -0.941166 0.337944 20.0688 9.13619)" fill="#D8D8D8"></ellipse>
          <path d="M17.6248 16.1911H18.9677C19.615 16.1911 19.8006 15.3225 19.8006 15.3225H18.3656C17.7168 15.3225 17.6248 16.1911 17.6248 16.1911Z" fill="#D8D8D8"></path>
          <path class="nav__logo__letter" d="M62.086 25.768H70.79L72.762 31.48C73 32.228 73.238 32.534 73.85 32.534C74.598 32.534 76.162 32.534 76.536 32.398C76.808 32.262 76.944 32.024 76.944 31.752C76.944 31.412 76.842 31.072 76.706 30.698L69.872 10.74C69.294 9.04 68.954 8.292 67.118 8.292H66.268C64.262 8.292 63.786 9.108 63.208 10.808L56.238 30.766C56.102 31.106 56 31.48 56 31.786C56 32.024 56.068 32.296 56.408 32.398C56.782 32.5 58.55 32.534 59.128 32.534C59.74 32.534 59.91 32.228 60.148 31.48L62.086 25.768ZM63.072 22.402C65.18 16.01 65.894 13.902 66.506 11.76C67.152 13.902 67.764 15.942 69.872 22.402H63.072Z" fill="white"></path>
          <path class="nav__logo__letter" d="M83.3352 26.652V7.884C83.3352 7.306 83.1992 7 82.5872 7H80.3772C79.7652 7 79.5612 7.34 79.5612 7.884V27.128C79.5612 28.828 79.7652 29.95 80.2072 30.664C80.9552 31.854 82.2472 32.602 85.1372 32.602C85.7492 32.602 86.0212 32.432 86.1232 31.956C86.1912 31.65 86.2592 30.936 86.2592 30.426C86.2592 29.984 86.0552 29.712 85.6132 29.644C84.6272 29.474 83.9472 29.168 83.6752 28.692C83.4372 28.25 83.3352 27.672 83.3352 26.652Z" fill="white"></path>
          <path class="nav__logo__letter" d="M93.0305 39.504V32.33C93.7785 32.704 95.2405 32.874 96.2945 32.874C101.871 32.874 104.557 31.106 104.557 23.592C104.557 16.928 102.381 14.99 97.4165 14.99C94.9345 14.99 91.9085 15.534 90.5485 16.146C90.0385 16.384 89.5965 16.69 89.4265 17.132C89.2905 17.472 89.2565 18.016 89.2565 18.492V39.504C89.2565 40.218 89.4945 40.388 90.0385 40.388H92.0785C92.6905 40.388 93.0305 40.184 93.0305 39.504ZM93.0305 28.148V20.158C93.0305 19.784 93.0305 19.478 93.1325 19.274C93.2005 19.07 93.4045 18.9 93.6765 18.764C94.5265 18.39 95.8865 18.186 97.0085 18.186C100.035 18.186 100.749 19.784 100.749 23.626C100.749 28.284 99.8305 29.61 95.9885 29.61C95.1045 29.61 94.0505 29.474 93.5405 29.236C93.1665 29.1 93.0305 28.862 93.0305 28.148Z" fill="white"></path>
          <path class="nav__logo__letter" d="M121.974 29.576V20.77C121.974 18.458 121.702 17.132 120.818 16.282C119.866 15.33 118.336 14.956 115.412 14.956C113.644 14.956 111.434 15.228 109.7 15.738C109.292 15.874 109.02 16.112 109.02 16.622C109.02 16.928 109.156 17.778 109.292 18.288C109.394 18.628 109.598 18.832 109.938 18.832C110.176 18.832 110.856 18.696 111.298 18.628C112.488 18.39 113.78 18.254 114.868 18.254C117.112 18.254 117.758 18.696 118.03 19.41C118.2 19.852 118.234 20.6 118.234 21.246V22.368C117.35 22.266 115.99 22.232 114.936 22.232C112.692 22.232 110.652 22.572 109.564 23.252C108.238 24.102 107.66 25.36 107.66 27.4C107.66 30.324 108.714 32.874 113.916 32.874C116.262 32.874 119.186 32.432 120.512 31.888C121.056 31.684 121.362 31.412 121.6 31.106C121.906 30.732 121.974 30.188 121.974 29.576ZM118.234 25.088V27.74C118.234 28.182 118.2 28.59 118.098 28.896C118.03 29.134 117.826 29.338 117.52 29.474C116.908 29.712 115.854 29.916 114.392 29.916C111.842 29.916 111.264 28.862 111.264 27.298C111.264 26.346 111.502 25.836 112.012 25.53C112.624 25.122 113.678 24.952 115.378 24.952C116.33 24.952 117.52 25.02 118.234 25.088Z" fill="white"></path>
          <path class="nav__logo__letter" d="M129.832 23.898C129.832 20.43 130.444 18.22 134.218 18.22C135.272 18.22 136.122 18.322 136.802 18.458C137.108 18.492 137.55 18.594 137.822 18.594C138.128 18.594 138.332 18.424 138.434 18.084C138.57 17.574 138.774 16.486 138.774 16.146C138.774 15.806 138.604 15.534 138.196 15.398C137.142 15.092 135.68 14.956 134.184 14.956C128.166 14.956 126.024 17.88 126.024 24.204C126.024 30.834 128.744 32.874 133.538 32.874C135.17 32.874 136.972 32.704 138.468 32.16C138.876 32.024 139.046 31.786 139.046 31.344C139.046 31.004 138.842 30.188 138.706 29.678C138.604 29.372 138.4 29.202 138.128 29.202C137.856 29.202 137.414 29.304 137.142 29.372C136.156 29.576 135.238 29.678 133.946 29.678C130.648 29.678 129.832 27.74 129.832 23.898Z" fill="white"></path>
          <path class="nav__logo__letter" d="M155.442 29.576V20.77C155.442 18.458 155.17 17.132 154.286 16.282C153.334 15.33 151.804 14.956 148.88 14.956C147.112 14.956 144.902 15.228 143.168 15.738C142.76 15.874 142.488 16.112 142.488 16.622C142.488 16.928 142.624 17.778 142.76 18.288C142.862 18.628 143.066 18.832 143.406 18.832C143.644 18.832 144.324 18.696 144.766 18.628C145.956 18.39 147.248 18.254 148.336 18.254C150.58 18.254 151.226 18.696 151.498 19.41C151.668 19.852 151.702 20.6 151.702 21.246V22.368C150.818 22.266 149.458 22.232 148.404 22.232C146.16 22.232 144.12 22.572 143.032 23.252C141.706 24.102 141.128 25.36 141.128 27.4C141.128 30.324 142.182 32.874 147.384 32.874C149.73 32.874 152.654 32.432 153.98 31.888C154.524 31.684 154.83 31.412 155.068 31.106C155.374 30.732 155.442 30.188 155.442 29.576ZM151.702 25.088V27.74C151.702 28.182 151.668 28.59 151.566 28.896C151.498 29.134 151.294 29.338 150.988 29.474C150.376 29.712 149.322 29.916 147.86 29.916C145.31 29.916 144.732 28.862 144.732 27.298C144.732 26.346 144.97 25.836 145.48 25.53C146.092 25.122 147.146 24.952 148.846 24.952C149.798 24.952 150.988 25.02 151.702 25.088Z" fill="white"></path>
        </svg>