<svg xmlns="http://www.w3.org/2000/svg" xmlns:xlink="http://www.w3.org/1999/xlink" width="258.623" height="57.262" viewBox="0 0 258.623 57.262">
  <defs>
    <linearGradient id="linear-gradient" x1="0.5" y1="0.01" x2="0.5" y2="0.998" gradientUnits="objectBoundingBox">
      <stop offset="0" stop-color="#ff787d"/>
      <stop offset="1" stop-color="#f93b42"/>
    </linearGradient>
    <linearGradient id="linear-gradient-2" x1="0.5" y1="0.011" x2="0.5" y2="0.948" xlink:href="#linear-gradient"/>
    <linearGradient id="linear-gradient-3" x1="0.5" y1="0.098" x2="0.5" y2="0.732" xlink:href="#linear-gradient"/>
  </defs>
  <g id="Logo" transform="translate(-2570.735 -319.604)">
    <g id="Text" transform="translate(2628.518 327.268)">
      <path id="Path_2" data-name="Path 2" d="M2343.692,568.558l-15.776,35.171h7.913l2.944-6.478h17.433l2.9,6.478h7.964l-15.777-35.171Zm9.553,21.838h-11.51l5.755-13.193Z" transform="translate(-2327.916 -568.558)" fill="#f93b42"/>
      <rect id="Rectangle_1" data-name="Rectangle 1" width="6.756" height="35.121" transform="translate(41.644 0.049)" fill="#f93b42"/>
      <path id="Path_3" data-name="Path 3" d="M2479.5,586.656l-2.719,3.363a13.1,13.1,0,0,0-6.143-1.391c-6.579,0-13.66,3.967-13.66,12.678,0,7.641,5.362,12.579,13.66,12.579,4.106,0,6.461,1.586,6.461,4.352,0,2.631-3.3,4.008-6.554,4.008a8,8,0,0,1-5.682-2.083,3.7,3.7,0,0,1-1.031-2.834l.024-.432h-6.766l-.014.395a10.451,10.451,0,0,0,2.748,7.847c2.346,2.431,6.052,3.716,10.715,3.716,6.554,0,13.61-3.322,13.61-10.616,0-2.566-.962-5.943-5.393-7.892a9.495,9.495,0,0,0,5.393-9.039,10.716,10.716,0,0,0-2.671-7.209l3.1-3.6Zm-8.862,8.335c3.949,0,6.707,2.6,6.707,6.314,0,3.689-2.758,6.265-6.707,6.265-3.3,0-6.855-1.961-6.855-6.265C2463.784,596.645,2467.476,594.991,2470.639,594.991Z" transform="translate(-2404.196 -579.254)" fill="#f93b42"/>
      <path id="Path_4" data-name="Path 4" d="M2543.821,592.2c-7.487,0-12.923,5.476-12.923,13.021,0,7.667,5.334,13.021,12.972,13.021,7.667,0,13.021-5.355,13.021-13.021A12.618,12.618,0,0,0,2543.821,592.2Zm.049,19.728c-4.26,0-6.167-3.369-6.167-6.707,0-3.254,1.93-6.756,6.167-6.756,3.861,0,6.167,3.435,6.167,6.756C2550.037,608.557,2548.13,611.925,2543.87,611.925Z" transform="translate(-2447.883 -582.529)" fill="#f93b42"/>
      <path id="Path_5" data-name="Path 5" d="M2630.256,585.5a7.261,7.261,0,0,0,3.861-6.571c0-6.591-4.46-10.371-12.235-10.371h-16.7v35.171h16.7c8.679,0,13.266-3.637,13.266-10.518A8.957,8.957,0,0,0,2630.256,585.5Zm-17.879,3.358h9.5c2.523,0,6.02,1.5,6.02,4.3,0,3.534-5.015,3.713-6.02,3.713h-9.5Zm9.5-6.511h-9.5v-7.083h9.5c3.945,0,4.989,2.493,4.989,3.811C2626.87,581.217,2625.145,582.348,2621.881,582.348Z" transform="translate(-2491.786 -568.558)" fill="#fff"/>
      <path id="Path_6" data-name="Path 6" d="M2698.965,591.6c-7.935,0-13.267,5.253-13.267,13.07,0,8.213,5.253,13.315,13.708,13.315,4.192,0,8.292-1.552,10.7-4.051l.28-.291-4.409-4.353-.288.3c-1.337,1.385-4.184,2.132-6.184,2.132-3.608,0-6.139-1.648-6.727-4.335h18.78l.035-.371c.467-5-.568-9.055-3-11.721C2706.4,592.875,2703.064,591.6,2698.965,591.6Zm-6.014,10.011c.919-2.483,3.153-3.893,6.21-3.893,3.2,0,5.283,1.411,5.8,3.893Z" transform="translate(-2539.374 -582.175)" fill="#fff"/>
      <path id="Path_7" data-name="Path 7" d="M2778.316,595.291c-2.2-2.417-5.532-3.694-9.632-3.694-7.936,0-13.267,5.253-13.267,13.07,0,8.213,5.253,13.315,13.709,13.315,4.193,0,8.292-1.552,10.7-4.051l.28-.291-4.41-4.353-.288.3c-1.337,1.385-4.184,2.132-6.183,2.132-3.609,0-6.14-1.648-6.728-4.335h18.78l.035-.371C2781.779,602.009,2780.743,597.956,2778.316,595.291Zm-15.646,6.317c.919-2.483,3.152-3.893,6.209-3.893,3.2,0,5.283,1.411,5.8,3.893Z" transform="translate(-2580.58 -582.175)" fill="#fff"/>
    </g>
    <g id="Icon" transform="translate(2570.735 319.604)">
      <path id="Path_8" data-name="Path 8" d="M2489.751,360.578c-.07,0-.141,0-.21,0a7.277,7.277,0,0,0-.826.071h0a45,45,0,0,1-11.18-16.471l0,0a7.2,7.2,0,0,0-6.258-10.17h0l-.035,0c-.087,0-.175-.006-.263-.006h-.027c-.088,0-.174,0-.262.006l-.036,0h0a7.2,7.2,0,0,0-6.257,10.17l0,0a45.005,45.005,0,0,1-11.181,16.471h0a7.268,7.268,0,0,0-.825-.071c-.069,0-.14,0-.21,0a7.2,7.2,0,0,0-6.6,10.073,6.941,6.941,0,0,0,.375.738,7.193,7.193,0,0,0,5.9,3.578q.162.008.327.008c.187,0,.372-.007.555-.021a7.2,7.2,0,0,0,6.313-9.335l.06-.088a45,45,0,0,1,11.578-17.14l.051,0q.106,0,.213,0h.027q.108,0,.214,0l.051,0a45,45,0,0,1,11.578,17.14l.059.088a7.2,7.2,0,0,0,6.314,9.335c.183.014.367.021.554.021q.165,0,.327-.008a7.2,7.2,0,0,0-.327-14.389Z" transform="translate(-2444.985 -317.713)" fill="url(#linear-gradient)"/>
      <path id="Path_9" data-name="Path 9" d="M2468.233,275.567a12.863,12.863,0,1,1,24.7,5.044,5.252,5.252,0,0,0,.417,4.913c.02.031.04.062.059.092a5.289,5.289,0,0,0,9.293-.832,23.484,23.484,0,1,0-43.211,0,5.285,5.285,0,0,0,9.285.812l.06-.092a5.3,5.3,0,0,0,.406-4.935A12.821,12.821,0,0,1,2468.233,275.567Z" transform="translate(-2455.102 -252.083)" fill="url(#linear-gradient-2)"/>
      <circle id="Ellipse_1" data-name="Ellipse 1" cx="5.368" cy="5.368" r="5.368" transform="translate(20.638 36.369)" fill="url(#linear-gradient-3)"/>
    </g>
  </g>
</svg>
